<svg width="700" height="700" viewBox="0 0 748 748" fill="none" xmlns="http://www.w3.org/2000/svg">
<path d="M316.786 229.901C316.786 249.526 316.786 268.547 322.975 286.36C257.911 362.747 86.1163 564.583 70.1144 579.981C66.9341 582.834 64.3899 586.325 62.6473 590.226C60.9047 594.128 60.0027 598.352 60 602.625C60 615.457 67.85 627.835 74.4923 634.78C84.4558 645.196 127.027 684.597 134.877 677.049C158.125 654.405 162.805 648.366 172.315 639.007C186.657 624.967 170.806 596.285 175.787 584.661C180.769 573.036 186.053 570.772 194.658 568.96C203.262 567.149 218.51 573.338 230.436 573.489C242.965 573.64 249.759 568.357 259.118 559.601C266.666 552.657 272.101 546.165 272.252 536.051C272.554 522.464 252.929 504.5 267.572 490.159C282.215 475.817 303.35 499.518 318.899 497.707C334.448 495.895 353.318 474.308 355.281 465.099C357.243 455.89 337.618 432.189 340.637 418.754C341.694 414.225 350.903 403.658 357.847 402.148C364.791 400.638 395.587 412.564 402.532 411.055C410.986 409.243 420.798 400.336 428.799 395.355C452.198 405.469 473.484 409.545 500.808 409.545C604.216 409.545 688 328.932 688 229.599C688 130.266 604.216 50 500.808 50C397.399 50 316.786 130.568 316.786 229.901ZM591.385 194.923C591.385 204.477 588.551 213.817 583.243 221.761C577.935 229.706 570.391 235.897 561.564 239.554C552.736 243.21 543.023 244.166 533.653 242.303C524.282 240.439 515.674 235.838 508.918 229.082C502.162 222.326 497.561 213.718 495.697 204.347C493.833 194.977 494.79 185.264 498.446 176.436C502.103 167.609 508.294 160.065 516.239 154.757C524.183 149.449 533.523 146.615 543.077 146.615C555.889 146.615 568.176 151.705 577.236 160.764C586.295 169.824 591.385 182.111 591.385 194.923Z" stroke="#F4A81B" stroke-opacity="0.4" stroke-width="48.3077" stroke-linejoin="round"/>
</svg>
